<?xml version="1.0" encoding="utf-8"?>
<!-- Generator: Adobe Illustrator 19.2.1, SVG Export Plug-In . SVG Version: 6.00 Build 0)  -->
<svg version="1.1" id="Capa_1" xmlns="http://www.w3.org/2000/svg" xmlns:xlink="http://www.w3.org/1999/xlink" x="0px" y="0px"
	 viewBox="0 0 50 50" style="enable-background:new 0 0 50 50;" xml:space="preserve">
<style type="text/css">
	.st0{fill:#B5221E;}
</style>
<g>
	<path class="st0" d="M31.1,18.3c2.1-2.1,5.4-2.1,7.5,0c0.3,0.3,0.7,0.3,1,0c0.3-0.3,0.3-0.7,0-1c-2.6-2.6-6.9-2.6-9.5,0
		c-0.3,0.3-0.3,0.7,0,1C30.3,18.6,30.8,18.6,31.1,18.3L31.1,18.3z M32.1,19.4c-0.3,0.3-0.3,0.7,0,1c0.3,0.3,0.7,0.3,1,0
		c0.9-0.9,2.4-0.9,3.3,0c0.3,0.3,0.7,0.3,1,0c0.3-0.3,0.3-0.7,0-1C36,17.9,33.6,17.9,32.1,19.4L32.1,19.4z M47.3,31l-2.8-6.8
		c-0.4-1-1.4-1.7-2.5-1.7H27.6c-1.1,0-2.1,0.7-2.5,1.7L22.3,31c-1.6,0.7-2.7,2.3-2.7,4.2v7.2c0,1.3,0.8,2.3,2,2.6v3.3
		c0,1,0.8,1.7,1.7,1.7h1.8c1,0,1.7-0.8,1.7-1.7v-3.2h15.9v3.2c0,1,0.8,1.7,1.7,1.7h1.8c1,0,1.7-0.8,1.7-1.7V45c1.2-0.3,2-1.4,2-2.6
		v-7.2C50,33.3,48.9,31.7,47.3,31L47.3,31z M25.4,48.3c0,0.1-0.1,0.3-0.3,0.3h-1.8c-0.1,0-0.3-0.1-0.3-0.3v-3.2h2.3V48.3z
		 M46.5,48.3c0,0.1-0.1,0.3-0.3,0.3h-1.8c-0.1,0-0.3-0.1-0.3-0.3v-3.2h2.3V48.3z M48.5,42.4c0,0.7-0.6,1.3-1.3,1.3h-25
		c-0.7,0-1.3-0.6-1.3-1.3v-7.2c0-1.7,1.4-3.1,3.1-3.1h13.6c0.4,0,0.7-0.3,0.7-0.7s-0.3-0.7-0.7-0.7c-0.1,0-13.6,0-13.6,0l2.4-5.8
		c0.2-0.5,0.7-0.8,1.2-0.8h14.3c0.5,0,1,0.3,1.2,0.8l2.4,5.8c-0.1,0-4.4,0-4.5,0c-0.4,0-0.7,0.3-0.7,0.7s0.3,0.7,0.7,0.7h4.4
		c1.7,0,3.1,1.4,3.1,3.1L48.5,42.4L48.5,42.4z M43.1,35.1c-1.5,0-2.8,1.2-2.8,2.8s1.2,2.8,2.8,2.8s2.8-1.2,2.8-2.8
		C45.9,36.3,44.6,35.1,43.1,35.1z M43.1,39.2c-0.7,0-1.3-0.6-1.3-1.3c0-0.7,0.6-1.3,1.3-1.3c0.7,0,1.3,0.6,1.3,1.3
		C44.4,38.6,43.8,39.2,43.1,39.2z M37.3,37.1h-5c-0.4,0-0.7,0.3-0.7,0.7s0.3,0.7,0.7,0.7h5c0.4,0,0.7-0.3,0.7-0.7
		S37.7,37.1,37.3,37.1z M24.1,13.8c1.1-0.2,2-1.2,2-2.4V8.8C26,3.9,22.1,0,17.3,0c-4,0-7.4,2.7-8.5,6.4H4.4v-5C4.4,0.6,3.8,0,3,0
		H1.4C0.6,0,0,0.6,0,1.4v5.3c0,0.4,0.3,0.7,0.7,0.7s0.7-0.3,0.7-0.7V1.5h1.5v14.4H1.5v-5.7c0-0.4-0.3-0.7-0.7-0.7S0,9.7,0,10.1v5.8
		c0,0.8,0.6,1.4,1.4,1.4H3c0.8,0,1.4-0.6,1.4-1.4v-5h4.1v0.6c0,1.2,0.8,2.2,2,2.4c0.2,3.6,3.2,6.4,6.8,6.4S23.8,17.4,24.1,13.8
		L24.1,13.8z M8.5,8.8v0.6H4.4V7.9h4.1C8.5,8.2,8.5,8.5,8.5,8.8z M10,11.4V8.8c0-4,3.3-7.3,7.3-7.3s7.3,3.3,7.3,7.3v2.6
		c0,0.6-0.5,1-1,1H11C10.4,12.4,10,12,10,11.4z M18.8,13.9C18.6,14.5,18,15,17.3,15s-1.3-0.5-1.5-1.1H18.8z M17.3,18.8
		c-2.8,0-5.1-2.1-5.3-4.9h2.3c0.3,1.4,1.5,2.6,3.1,2.6s2.8-1.1,3.1-2.6h2.3C22.4,16.6,20.1,18.8,17.3,18.8L17.3,18.8z M26.5,35.1
		c-1.5,0-2.8,1.2-2.8,2.8s1.2,2.8,2.8,2.8c1.5,0,2.8-1.2,2.8-2.8C29.2,36.3,28,35.1,26.5,35.1z M26.5,39.2c-0.7,0-1.3-0.6-1.3-1.3
		c0-0.7,0.6-1.3,1.3-1.3s1.3,0.6,1.3,1.3C27.8,38.6,27.2,39.2,26.5,39.2z"/>
</g>
</svg>
