<?xml version="1.0" encoding="utf-8"?>
<!-- Generator: Adobe Illustrator 19.2.1, SVG Export Plug-In . SVG Version: 6.00 Build 0)  -->
<svg version="1.1" id="Capa_1" xmlns="http://www.w3.org/2000/svg" xmlns:xlink="http://www.w3.org/1999/xlink" x="0px" y="0px"
	 viewBox="0 0 180 44" style="enable-background:new 0 0 180 44;" xml:space="preserve">
<style type="text/css">
	.st0{fill:#4779B6;}
	.st1{fill:#C33D40;}
</style>
<g>
	<path class="st0" d="M178.5,42.4c0.1,0.2,0.3,0.1,0.2-0.5l-0.3-0.5L178.5,42.4z"/>
	<path class="st0" d="M179.1,38.1c-0.2-0.8-0.4-1.6-0.7-1.1c0.3,0.7,0.2,0.9,0.6,1.7c0,0.6-0.1,1.1-0.2,1c0.1,0.2-0.1,1,0.1,1.3
		c0.3-0.8,0.3-1.9,0.1-3C178.9,37.8,179,38.1,179.1,38.1z"/>
	<path class="st0" d="M153.3,1l0.4,0C153.6,1.1,153.5,1.1,153.3,1z"/>
	<path class="st0" d="M115.1,0.9c0.3,0,0.4,0,0.4-0.1C115.2,0.8,115,0.8,115.1,0.9z"/>
	<path class="st0" d="M108.5,0.5c0.1,0,0.3,0,0.4,0C108.8,0.5,108.6,0.5,108.5,0.5z"/>
	<path class="st0" d="M153.3,1l-1-0.1C152.2,1.1,152.8,1,153.3,1z"/>
	<path class="st0" d="M178.3,29.5c0,0.2,0,0.4,0.1,0.6C178.4,29.8,178.3,29.7,178.3,29.5C178.3,29.5,178.3,29.5,178.3,29.5z"/>
	<path class="st0" d="M170.2,0.8l0.3,0c0.1,0,0.2-0.1,0.3-0.1L170.2,0.8z"/>
	<path class="st0" d="M179.9,5.6c0-0.3-0.3-0.4-0.4-0.5c0.1,0.2,0.2,0.4,0.2,0.7C179.8,5.7,179.8,5.7,179.9,5.6z"/>
	<path class="st0" d="M179.4,26.5l0,0.4C179.5,26.8,179.4,26.6,179.4,26.5z"/>
	<path class="st0" d="M160.9,0.7c0,0-0.1-0.1-0.1-0.1C160.8,0.6,160.9,0.7,160.9,0.7z"/>
	<path class="st0" d="M164.1,41.1C164.1,41.1,164.1,41.1,164.1,41.1C164.2,41.1,164.2,41.1,164.1,41.1z"/>
	<path class="st0" d="M179.1,42.5l-0.2,0c0,0.1,0,0.1,0,0.2L179.1,42.5z"/>
	<path class="st0" d="M96.6,0.1C96.6,0.1,96.6,0.1,96.6,0.1C97,0.1,96.8,0.1,96.6,0.1z"/>
	<path class="st0" d="M0.5,16.6c0.3-1.3,0.3,2.1,0.6,0.2C1,16.9,0.6,15,0.5,16.6z"/>
	<path class="st0" d="M178.3,29.1c0-0.2,0-0.4,0-0.5C178.3,28.8,178.3,29,178.3,29.1z"/>
	<path class="st0" d="M1.1,16.7L1.1,16.7l0-0.2C1.1,16.6,1.1,16.7,1.1,16.7z"/>
	<path class="st0" d="M69,0.3c0.1,0.1,0.2,0.1,0.3,0.1C69.3,0.4,69.3,0.4,69,0.3z"/>
	<path class="st0" d="M89.6,0.7l-0.5,0C89.3,0.7,89.4,0.7,89.6,0.7z"/>
	<path class="st0" d="M58.4,0.7c-0.3,0-0.4-0.1-0.7,0c0,0,0.1,0,0.1,0C57.9,0.7,58.1,0.7,58.4,0.7z"/>
	<path class="st0" d="M47.3,0.7c0.1,0,0.1,0,0.2,0.1c0.1,0,0.2,0,0.4,0L47.3,0.7z"/>
	<path class="st0" d="M130.4,41.2c0.2,0.1,0.4,0.2,0.5,0.3C130.8,41.3,132.4,41.2,130.4,41.2z"/>
	<path class="st0" d="M178.4,29.4c-0.1-0.1-0.1-0.2-0.1-0.3c0,0.1,0,0.3,0,0.4C178.4,29.5,178.4,29.5,178.4,29.4z"/>
	<path class="st0" d="M57.9,3l-1.8,0C56.7,3,57.3,3,57.9,3z"/>
	<path class="st0" d="M50.9,41.3l0.4,0C51.1,41.2,51,41.2,50.9,41.3z"/>
	<path class="st0" d="M51,3c-0.3-0.1-0.6-0.2-1-0.2c-0.1,0-0.2,0-0.2,0.1L51,3z"/>
	<path class="st0" d="M130.9,41.5L130.9,41.5L130.9,41.5z"/>
	<path class="st1" d="M142.6,40.8c-1.7,0-0.8,0.4-1.1,0.6c-2,0.1-0.9-0.3-1.6-0.5c-1.3,0.1-2.2,0.4-3.1,0.4c-0.1-0.1-0.3-0.1,0-0.2
		c-1.3,0.3-3.9,0-5.5,0.4c-0.1,0-0.2-0.1-0.2-0.1c0.2,0.2,0.3,0.4,0.2,0.5c-0.8,0-1.4,0.2-1.7,0c0.5,0,0.5-0.1,0.7-0.2l-0.8,0.1
		c-0.7-0.4,1.1-0.1,1.1-0.4c-1.5,0.1-3.3,0.4-4.5,0.3c-0.2-0.3,2.8-0.1,1.2-0.4l1.8,0.1c-1.4-0.5,1.1,0-0.2-0.5
		c-2.4-0.1-2.7,0.2-5.1,0.1c-0.5,0.2,0.2,0.3-0.4,0.5c-3.4,0.3-2.7-0.9-5.2-0.4c-0.6,0.2-0.9,0.7-2.7,0.4l0.6-0.4
		c-2.3,0-1.3,0.6-3.8,0.3c0.4-0.2,1.8-0.1,1.5-0.2c-1.6-0.3-1.1,0.2-2.3,0.2l-0.3-0.3c-2.5,0.1-5.2,0.3-7.9,0.4
		c0.2-0.1,0.6-0.2,0-0.3c-3.5,0.2-7.4,0-10.7-0.2l-1.3,0.3c-0.3,0-0.5-0.1-0.2-0.2c-1.3-0.1-0.1,0.2-0.7,0.3c-0.7,0-1-0.2-0.5-0.3
		c-2.3,0.3-6.5,0.5-8.9,0.2l0.5-0.1c-1.9-0.1-2.1,0.6-3.9,0.3l0.3-0.1c-4.1-0.1-8.6,0.1-11.7-0.3c-0.6,0.4-4-0.2-4.3,0.4
		c-2.3-0.3-1.7-0.4-4.9-0.6c-0.9,0-1.3,0.4-2.4,0.4l0-0.3l-1.5,0.3l-0.8-0.4l-1,0.1c0.4,0,0.9,0.1,0.8,0.2c-1.6,0.1-3.9-0.2-3.9-0.4
		l-3.8,0.3c0.1-0.1,0.7-0.2,1.2-0.3c-2,0.3-0.4-0.3-2.2,0c0.2,0.1-0.1,0.2-0.2,0.3c-0.9-0.2-3-0.2-4.5-0.1L39,41
		c-2.8-0.1-5.9,0.1-9,0.1c1.1,0.1,0.9,0.5-0.1,0.5l-0.4-0.3c-0.6,0.2,1,0.1-0.3,0.4c-1.2,0-0.8-0.4-0.1-0.5l-1.4,0.1
		c-0.1-0.1,0.2-0.2,0.3-0.3c-0.6,0.2-2.5-0.3-3.3,0l-0.1-0.1c-3.1,0-4.5,0.1-7.1,0.1c0,0.3-1,0.2-1.8,0.5c-1.9-0.1-3.9-0.3-6.2-0.3
		c-1.6,0.1-0.5,0.2-1.2,0.4c-0.1-0.3-2.4-0.2-1.2-0.4c-1.1,0-1.9,0-2.7,0.1c-0.4,0-0.8,0-1.3,0c-0.2,0-0.4,0-0.6,0.1
		c0,0-0.1-0.2-0.1-0.4c-0.1,0.2-0.2,0.5-0.2,0.4c0-0.2,0-0.4,0.1-0.5c0-0.2,0.1-0.4,0.2-0.4l0,0.2c-0.4-3.9,0.8-9,0.2-12.1l0,0.2
		l-0.3-3.2c0-1.5,0.2,0.9,0.4-0.2c-0.4-3.5,0.1-5.5-0.2-8.4C3.4,14.6,2.6,9,3.1,6L2.9,6.1C2.8,5.4,3,5.2,3.1,4.6
		C2.9,4.7,2.9,5.5,2.8,5c0-0.8,0-1.5-0.1-2.3c1,0,2,0,2.9,0.1c1.4,0,2.8,0.1,4.1,0.1c2.8,0.1,5.5,0.2,8.3,0.3c2.4,0,1.4-0.9,4.4-0.5
		L21.7,3c4.9-0.4,10,0,14.7-0.3c-0.3,0.1-0.3,0.2-0.8,0.2c1,0.2,3.7,0,3.7-0.2c0.7,0,0.2,0.2,0.6,0.3c1,0.1,2.5-0.3,3.1-0.1
		c0.1,0-0.3,0.1-0.5,0.1c0.7-0.1,3.1,0,2.4-0.3c1.8,0.1,3.4-0.1,4.9,0c0.9-0.3,3.1,0.2,3.4-0.3c-0.1,0.5,3.1,0.4,4.3,0.2
		c-0.4,0.1,1,0.1,0.5,0.3c1.3,0,2.5-0.1,2.3-0.3c2.4,0.6,4.8-0.4,6.1,0.3c3.8-0.2,7.4-0.4,10.8-0.5c-0.1,0.5-3.8,0-3.7,0.5
		c3.3-0.2,5.2-0.6,8.4-0.5c0.8,0.1-0.5,0.2-0.8,0.3c3.3-0.2,6.3,0,9.2-0.2c0,0-0.3,0.1-0.6,0.1c0.6,0,1.3,0.1,1.3-0.1l-0.6,0.1
		c-0.9-0.3,2.3-0.6,2.4-0.8c-1,0.6,2.9,0.2,1.3,0.9c0.4,0,0.9-0.1,0.8-0.3c0.6,0,0.7,0.1,0.2,0.3c2.1-0.1,1.3-0.3,3.2-0.3
		c0,0.1-0.4,0.1-0.6,0.3c0.9-0.2,1.9-0.4,3.5-0.3c-0.1,0.1,0.1,0.1-0.4,0.1c2.7,0,4.6-0.5,7.6-0.3c-0.9,0.4,1,0.1,1.2,0.5l1.6-0.1
		l-0.6-0.2c1.4,0,2.6-0.3,3.8-0.1l-1,0.2l2.6-0.1l-1.5-0.1c1.4-0.2-0.2-0.5,1.7-0.4c-0.4,0,1.4,0,2.1,0.2l0,0
		c0.7-0.1,1.4-0.2,2.4-0.2c0.3,0.1-0.2,0.4,0,0.5c0.7-0.3,3.3-0.1,4.1-0.4c-0.3,0.1-0.3,0.3-0.2,0.3l0.6-0.3
		c0.6,0.1,0.7,0.1,0.6,0.3c1.9,0-0.6-0.5,1.7-0.3c-0.2,0-0.1,0.1-0.5,0.1c2.3,0.1,4.5-0.2,6.6,0c0.6,0.4-1.9,0.1-1.1,0.4
		c3.1-0.1,6.4-0.5,9.3-0.4l-0.6,0c0.4-0.5,2.2,0.3,3.7,0c-0.4,0-0.5,0.3-0.4,0.2c2,0.1,4.2-0.1,7.3-0.3l-0.4,0.1
		c1.2,0.1,3.2,0.1,4.5,0.1c0.4-0.1,1.1-0.1,0.7-0.3c4,0.8,7.6-0.4,11.2,0.2c-0.4,0-1,0.1-0.7,0.1l3-0.1c-0.2-0.2-0.4-0.1-1-0.3
		c0.4-0.1,1.2-0.2,2-0.2c-1.4,0.2,0,0.4,0.6,0.5C171.8,2,172,1.9,172,1.9c1.6,0.4,0.3-0.5,2.4-0.2l-0.1,0.1c0.8-0.1,1.6-0.2,2.4-0.2
		c0.4,0.3-0.9,0.1-0.9,0.4c0.6,0,1.1-0.1,1.7-0.2c0.5-0.1,1.1-0.2,1.5-0.1l0,0.2c0,0,0-0.1,0-0.2c-0.5,0.1-1,0.1-1.4,0.1
		c0.6,0.2,0.7,0.3,1,0.3c0,0.1,0,0.3,0,0.4l0-0.1c0,0,0,0.3-0.1,0.7c0,0.5-0.1,1-0.1,1l0.1-0.5c0.7,1.6,0.1,3.2,0.6,5.3
		c-0.4-2-0.3-0.3-0.6-0.5c-0.1,0.5-0.2,1.4-0.3,1.1c0.2,1-0.2,1.7,0.2,3.1c-0.1,0.1,0,1.1-0.3,0.8c0.1,1.3,0.2-0.3,0.3-0.2
		c0.3,2-0.4,4.7,0.1,7.5c0.2,2.5,0.5,2.9,0.7,5.2c-0.2,0.8-0.4-0.6-0.4-0.6c-0.1,1.2-0.1,2.2,0,3.4c-0.1-0.2-0.2,0-0.3,0.4
		c0,0.9,0.4,0.6,0.2,1.9c-0.1-0.2-0.3-0.5-0.4-0.9c0.1,1.1,0.3,2.2,0.4,3.4c-0.2,0.3-0.3-0.7-0.4-1.1c0.1,1.3,0.2,3.3,0.4,3.7
		l0.1-0.8c0,0.5-0.2,0.2-0.3-0.1c-0.2-1.1,0.1-1.6,0.2-1.7l0.1,0.8c0.6-0.8-0.1-3.3-0.1-4.9l0.4,0.7l-0.3-1.7
		c0.1-0.4,0.3-0.6,0.4,0.2c0.2-1.2-0.1-1,0.1-2.1c0-0.1,0.1-0.1,0.1,0l-0.1-1.2c0.1,0.2,0.3-0.2,0.2,0.5c0.2-2.1-0.3-3.3,0-4.1
		l0,0.2c-0.1-2.9-0.3-0.3-0.7-2.4l0.8-1.5l-0.3-0.3c0-0.3,0-0.9,0.2-0.8c-0.2-1.1-0.1,0.2-0.3-0.5c0.3-1.4-0.1-3.9,0.4-4.3
		c-0.2-0.5-0.2,1.4-0.3-0.2c0.5-0.4-0.1-1.8,0.2-3.1c0.3,0.4,0.1,1.6,0.4,0.3c-0.5-0.8,0.1-2.5,0-3.6c-0.2,0-0.2-0.6-0.2-1.4
		c0-0.4,0-0.9,0-1.4c0-0.6,0-1.2,0-1.7l0,0c0.1,0-0.1-0.1-0.6-0.1c-0.4,0-1,0-1.6-0.1c-1.1-0.1-2.4-0.1-3.2-0.2l0-0.1
		c-0.3,0.4-2.1,0.3-3.3,0.4c0-0.2,0.3-0.3,1-0.4l-1.2,0c-0.3,0.1-0.7,0.2-1.4,0.2l0.3-0.3c-1.6,0-3.2,0.3-5.2,0.1
		c-0.1,0.3,1.6,0.7-0.5,0.9c-0.1-0.1-0.2-0.4,0.4-0.4c-0.2,0-0.7,0.1-1,0.1l0.9-0.2c-0.9-0.1-0.5,0.2-1.2,0.2c0-0.2-0.5-0.1-0.4-0.3
		c0.2,0,0.6,0.1,0.9,0c-0.8,0-1.8-0.2-2.2-0.3c0.1,0.1,0,0.3-0.6,0.3c-1.6,0-0.5-0.2-1.5-0.3c-0.4,0.1-1.4,0-1.4,0.3
		c-0.5,0-0.5-0.1-0.7-0.2c-0.8,0.1-3.8,0-2.9,0.4l0.2,0c0,0-0.1,0-0.1,0c0,0,0,0,0,0h0c-2.7,0.3-5.6-0.2-8.2,0l0-0.1
		c-1.6,0.1-3.5,0.1-4.7,0.3c-0.5,0-1.1-0.2-0.9-0.3c-1.2,0.1-1.4,0.2-3.1,0c1.2-0.2-0.4-0.2,1.3-0.1c-1.6-0.1-1.9-0.2-3.6,0
		c0.6-0.3-1.2-0.3-1.9-0.2l1.1,0.2c-0.8,0-1.6,0-2.3,0l0.4-0.3c-3.2-0.4-5.8,0.7-8.3,0c-0.9,0.2,1.8,0.2,1,0.4c-1.5,0-3-0.5-3.5-0.5
		c-2-0.2-1.9,0.5-4,0.4c0.3,0.1,0.5,0.4-1.1,0.6c-1.5,0-1.8-0.5-0.9-0.6c0.4,0,0.5,0,0.5,0.1c0.5,0,1.1-0.1,0.5-0.2l-0.2,0.1
		c-0.7-0.1-2.8-0.1-2.3-0.3c-1.1,0.1-0.5,0.2,0.4,0.3c-1.9-0.2-3,0-4.9-0.1c0.3,0.1,0.6,0.2,0.3,0.2c-2.9-0.2-1.3,0.2-3.2,0.3
		c-1.1-0.2,0.4-0.4-1.6-0.3c-1.2-0.1-0.3-0.3,0.2-0.4c-1.8,0.2-3.3-0.2-4.4-0.2l0.9-0.1c-0.6,0.1-1,0.1-1.5,0.1l0.5,0.2
		c-0.6,0-1,0-1-0.1c-0.6,0.2,0.4,0.4-0.7,0.6c-0.7-0.1-2.2,0.1-2.5-0.2c2.3,0.1-0.3-0.3,1.7-0.4c-0.4,0-0.8,0-1.4,0
		c-0.1,0,0.1-0.1,0.2-0.1c-2.2-0.3-1,0.4-3.3,0.4c0.3-0.2-0.5-0.3-0.9-0.3c0.9,0,0.4,0.3-0.4,0.4c-1.5-0.1-1.6,0.1-2.4,0.1l0.9,0.1
		c-0.3,0.2-1,0.2-2.1,0.2c-0.1-0.1,0.9-0.1,0.6-0.2c-1.1,0.3-2.6-0.3-4.2-0.1C84,0.6,84.7,0.4,84,0.3c-1.8,0.2-1.9-0.2-3.8-0.1
		c0.5,0.2,0.6,0.2-0.7,0.4l3.1-0.2l-2,0.4c0.9,0,2-0.2,2.5-0.1c-0.9,0.2-0.8,0.1-0.4,0.3c-1.3-0.4-2.5,0.2-4,0l0-0.6
		c-2.2-0.3-3.9,0.3-6.8,0.2l0.9,0.1c-0.4,0.2-1.8,0-2.7,0.1c0.1-0.2-0.5-0.3-0.9-0.4c0,0.1-2.1,0-2.4,0.4l-1.3-0.3
		C63.3,0.4,63,1.1,60.8,1c0.7-0.2-0.3-0.4,1.2-0.5c-0.7,0-1.4,0-1.4,0.1c-0.4-0.1-2.1,0.3-2.8,0.1C57.4,0.8,57.3,1,56.5,1
		c-0.1,0,0-0.1,0-0.1c0,0.1-1.3,0.1-0.6,0.4c-2.3-0.6-6.4,0-8.4-0.5c-1.6,0.1-3.6,0.1-5.1,0.1c0.1-0.1,0-0.1,0.3-0.1
		c-2-0.2-1.3,0.6-3.6,0.4C38,0.9,40.4,1,39.6,0.9c-0.3-0.7-2.8,0.1-4.4-0.3l0.4,0c-1.2-0.2-2.9,0.3-4.9,0.2c0,0,0.1-0.1,0-0.1
		C29.5,1,27,1.1,25.1,1.2c0.6-0.3,0.9-0.1,0.5-0.4c-0.8,0,0.2,0.4-1.4,0.5c-0.5-0.1-1.8-0.3-1.9-0.5l1.6,0c-0.8-0.4-2,0-2.9-0.1
		L21,0.5C18.6,0.6,18.6,1,16,1l0.3,0.1c-1.4,0.4-1.2-0.2-2.6,0.1l-0.4-0.4c-0.9,0.1-3.3,0.4-5,0.5c1-0.3,2.9-0.5,4.1-0.6
		c-0.9,0-3.2,0-3.7,0.2c0.4,0,0.8-0.1,1.2-0.1C8.8,1.1,7.3,1.2,5.4,1.2c0.1-0.3-0.4-0.4-1.1-0.4c-0.2,0-0.4,0-0.6,0
		c-0.2,0-0.5,0-0.8,0c-0.7,0-1.4,0-2.1,0c0,0.7,0,1.5-0.1,2.1c0,0.4-0.1,0.5-0.1,0.7c0,0.2-0.1,0.3-0.1,0.4
		c0.3,3.3-0.1,6.6-0.1,10.5c0.6-1.4,0,1.1,0.6,0.9c0,0.9,0,1.3,0,1.3l-0.4,2.8c-0.2,0.7-0.1-0.9-0.3-0.8c0,2-0.3,0.8-0.4,2.1
		c0.2-0.3,0.3,0.7,0.2,1.8l0.3-1.6c0.3,2.8-0.5,2.4-0.2,5.2l-0.2-0.9c0.1,1.4,0,5.3,0.5,6.7c-0.1,0.3-0.2,0.6-0.3,0
		c0,1.7,0.1,3.6,0.2,5.4c0.1,0.9,0.1,1.8,0.1,2.6c0,0.2,0,0.4,0,0.6c0,0.3,0,0.6,0,0.9c0,0.6,0,1.2-0.1,1.8l-0.2-0.3
		c0,0.2,0,0.4,0,0.6c0.9-0.1,1.6-0.2,2.7-0.1c-0.1,0.1-0.5,0.2,0.1,0.2c0.4-0.1,1.7-0.3,2.5-0.2L5,43.7c3.3,0.2,5-0.4,7.8-0.5
		c0,0.5,2.6,0.6,3.9,0.7l0,0.1c3.8,0.1,6.5-0.4,10.1-0.6c2.2,0.5,7.5,0.2,11,0.5c-0.5-0.1,0.1-0.4,0.7-0.4c0.8,0.1,2.3-0.3,2.2,0.1
		l-0.3,0c0.6,0.4,2.3,0.3,3.7,0.3l0.2-0.5c3.5,0.8,9.1-0.3,11,0.4c0.8-0.1,1.9-0.1,2.7-0.3l0,0.3c2.3,0.1,3.5,0.1,6.4,0L63.6,44
		c1.6,0,2.1-0.8,3.5-0.9l0.5,0.4c2.8,0,5.7,0.4,8.5,0c0,0.1-0.1,0.2-0.6,0.2c1.3,0,5.2,0.3,4.7-0.3c0,0.4,2.9,0,4.5-0.1l-0.2,0.3
		c1.3-0.4,1.3-0.5,3.1-0.6c0.4,0,0.4,0.2-0.2,0.2c1.4,0.1,1.1-0.3,2.8-0.1l-0.6,0.2c1.5,0,1.3-0.1,2.2-0.3c0.9-0.1,2.8,0.1,3,0.3
		c0.2-0.2,1-0.4,1.9-0.3c0.1,0.1-0.2,0.2-0.4,0.2c2.5,0.2,3.6-0.3,5.3-0.1c0,0.1,0.1,0.1,0.3,0.2c-1.9,0-3.5,0-3.4,0
		c0,0.3,1.6,0.3,0.3,0.7c1.3-0.2,3.4-0.6,5-0.5c0.1,0,0.1,0.1,0.2,0.1l-0.2,0c0.4,0,0.7,0,1,0c0.5,0,0.8,0.1,1.3,0.1
		c0.2,0.2,1.8,0.1,2.6,0.1c-0.1-0.3,1-0.2,0-0.5c0.1,0-0.1,0-0.7,0c-0.1,0-0.3,0-0.3,0c0,0,0,0,0.1,0c-0.5,0-1.2,0-1.9,0
		c0.6-0.1,1.3-0.3,2.1-0.1c0.4-0.2,0.8-0.4,1.1-0.5c1.1,0.4,3.1,0.6,3.4,0.9c2.4-0.2,5.6-0.1,7.1-0.6c0.7-0.1,0.8,0.2,1,0.2
		c-0.4,0.1-0.9,0-1.1,0.1c1.4-0.1,4-0.1,4.4-0.4c1.7,0.2-1,0.3,1.4,0.3l-0.3,0.1c4.6,0.6,7.5-1,12.7-0.2c-0.4,0-0.5-0.1-0.6-0.1
		c5.9,0.3,12.1-0.3,17.9,0.2c1.6,0.1,1.8-0.1,2.8-0.3l0.4,0.3l1.7-0.4c2.4-0.3,4.2,0.8,7.3,0.3l-0.4-0.2c1.1,0,3.5-0.1,3.3,0.1
		c0.1,0,0.4-0.2,0.8-0.1l0,0.2l2.7-0.3c2.1,0.1-0.3,0.6,2.7,0.7c1.1-0.1,3.3-0.5,2.8-0.6c-0.5,0-1.2-0.1-1.2-0.3l1-0.1
		c0.2-0.5,1-1-1.6-1.3l-1.8,0.3l-0.6-0.2l1.5,0c-0.9-0.2-1.4,0-2,0.1c-0.1-0.1-0.4-0.2-0.7-0.3l-1.8,0.5c-0.2-0.2,0.8-0.4-0.4-0.5
		c-0.8,0.2,0.8,0.4-0.6,0.6c-0.9-0.2-0.6-0.4-1.6-0.2c-0.1-0.1,0.1-0.2,0.5-0.3c-0.9,0.1-2.4,0.1-2.8,0.3c-0.9-0.3-3,0.1-2.9-0.4
		c-0.3,0.1-1.6,0.4-2.4,0.4c1.5-0.5-3.1,0-2.7-0.6c-1.1,0.5-4,0.2-6,0.5c0.1,0,0.3-0.1,0.5-0.1c-1.1,0-1.4-0.2-2.1-0.3
		c-0.1,0.4-1.9,0.5-2.8,0.7c-1.4-0.4,0.8-0.5,0.4-0.8c0.1,0.3-2.4,0.3-1.9,0.6c-1-0.2-0.9-0.1-1.4-0.4c-0.2,0.5-1,0.1-1.8,0.4
		c-1.5-0.2-0.4-0.5-2-0.3C141.1,41,142.6,40.8,142.6,40.8z M103.3,41.7L103.3,41.7c0.3,0,0.6,0,0.8,0
		C104,41.7,103.8,41.7,103.3,41.7z M100,41.7c0.4,0,0.9,0,1.4,0c0.1,0.1,0,0.2-0.3,0.2C101.3,41.8,100.5,41.8,100,41.7z M107,43.7
		c-0.5,0-0.7,0-0.8-0.1c0.2,0,0.5,0,0.9,0c0,0,0,0,0.1,0C107.2,43.6,107.1,43.6,107,43.7z"/>
	<path class="st0" d="M108,43.3c0.1,0,0.1,0,0.2,0C108.1,43.3,108,43.2,108,43.3c-0.2-0.1-0.2,0-0.3,0
		C107.8,43.3,107.9,43.3,108,43.3z"/>
	<path class="st0" d="M153.8,1.1L153.8,1.1C153.8,1.1,153.8,1.1,153.8,1.1C153.8,1.1,153.8,1.1,153.8,1.1z"/>
	<polygon class="st0" points="54.5,41.1 54.6,41.2 54.8,41.1 	"/>
	<path class="st0" d="M171.9,2.1c0,0,0.1,0.1,0.2,0.1C172.2,2.1,172.1,2.1,171.9,2.1z"/>
	<path class="st0" d="M178.5,2.6c0,0,0,0.2-0.1,0.4c0,0.1,0,0.2,0,0.2c0,0.1,0,0.2,0,0.2C178.5,2.9,178.5,2.8,178.5,2.6z"/>
	<path class="st0" d="M178.4,8.3c0,0.1,0.1,0.1,0.1,0.1l0,0L178.4,8.3z"/>
	<path class="st0" d="M90,2.6c-0.1,0-0.2,0-0.2,0C89.2,2.7,89.6,2.7,90,2.6z"/>
	<path class="st0" d="M118.5,2c-0.3,0.1-0.6,0.1-0.9,0.1C118.1,2.1,118.5,2.1,118.5,2z"/>
	<path class="st0" d="M58.1,3L58.1,3c-0.1,0-0.1,0-0.2,0L58.1,3z"/>
	<path class="st0" d="M116.3,2.1c0.5,0.1,0.9,0,1.3,0C117.2,2.1,116.7,2,116.3,2.1z"/>
	<path class="st0" d="M178.3,34.9l0,0.3c0,0,0,0,0,0L178.3,34.9z"/>
	<path class="st0" d="M178.3,35.3l0,0.3C178.3,35.4,178.3,35.3,178.3,35.3z"/>
	<path class="st0" d="M178.4,36.3l-0.1-0.7C178.3,35.8,178.3,36.1,178.4,36.3z"/>
	<path class="st0" d="M178.4,26.8l-0.1-0.1C178.3,26.8,178.3,26.8,178.4,26.8z"/>
	<path class="st0" d="M178.4,24.3c0,0.6-0.2,1.5-0.2,2.3l0.1,0.1C178.1,26.3,178.5,24.9,178.4,24.3z"/>
	<path class="st0" d="M179.6,14l-0.1,2.1c0.1-0.4,0.3-0.8,0.3,0.1C180.1,13.6,179.6,16.7,179.6,14z"/>
	<path class="st0" d="M179.8,7.6c0.1,1.1,0.2,0,0.2,0C179.9,6.9,179.9,6.8,179.8,7.6z"/>
	<path class="st0" d="M139.6,0.9l0.1-0.3C138.9,0.6,139.7,0.7,139.6,0.9z"/>
	<polygon class="st0" points="130.9,2.2 131.7,2.4 132.1,2.1 	"/>
	<polygon class="st0" points="125.7,0.4 126.1,0.3 124.7,0.4 	"/>
	<path class="st0" d="M49.3,0.4l0.3,0.3C50.1,0.7,50.2,0.3,49.3,0.4z"/>
	<path class="st0" d="M16.3,0.8c-0.4-0.2-1.3-0.3-1.9-0.1C15.1,0.7,15.9,0.8,16.3,0.8z"/>
	<polygon class="st0" points="45.8,43.7 45.1,43.8 46.4,43.7 	"/>
</g>
</svg>
