<?xml version="1.0" encoding="utf-8"?>
<!-- Generator: Adobe Illustrator 19.2.1, SVG Export Plug-In . SVG Version: 6.00 Build 0)  -->
<svg version="1.1" id="Capa_1" xmlns="http://www.w3.org/2000/svg" xmlns:xlink="http://www.w3.org/1999/xlink" x="0px" y="0px"
	 viewBox="0 0 180 78" style="enable-background:new 0 0 180 78;" xml:space="preserve">
<style type="text/css">
	.st0{fill:#4779B6;}
</style>
<g>
	<path class="st0" d="M178.4,76.5c0.1,0.3,0.3,0.1,0.2-0.6l-0.3-0.5L178.4,76.5z"/>
	<path class="st0" d="M179,71.6c-0.2-0.9-0.4-1.8-0.7-1.3c0.3,0.8,0.2,1.1,0.6,2c0,0.7-0.1,1.3-0.2,1.1c0.1,0.3-0.1,1.1,0.1,1.5
		c0.3-0.9,0.3-2.1,0.1-3.4C178.9,71.3,179,71.5,179,71.6z"/>
	<path class="st0" d="M178.3,1l0.6,0C178.8,1,178.6,1,178.3,1z"/>
	<path class="st0" d="M133.6,0.8c0.3,0,0.5,0,0.5-0.1C133.8,0.8,133.6,0.8,133.6,0.8z"/>
	<path class="st0" d="M126,0.5c0.2,0,0.3,0,0.4,0C126.3,0.5,126.1,0.4,126,0.5z"/>
	<path class="st0" d="M178.3,1L177,0.9c0,0.1,0.1,0.1,0.3,0.1C177.6,1,178,1,178.3,1z"/>
	<path class="st0" d="M178.2,61.8c0,0.2,0,0.5,0.1,0.6C178.3,62.2,178.3,62,178.2,61.8C178.3,61.8,178.3,61.8,178.2,61.8z"/>
	<path class="st0" d="M179.8,19.9l0,0.4c0,0.1,0.1,0.2,0.1,0.3L179.8,19.9z"/>
	<path class="st0" d="M179.9,34.8c0-0.3-0.3-0.5-0.4-0.6c0.1,0.2,0.2,0.4,0.2,0.7C179.7,35,179.8,35,179.9,34.8z"/>
	<path class="st0" d="M179.4,58.5l0,0.4C179.4,58.8,179.4,58.6,179.4,58.5z"/>
	<path class="st0" d="M179.9,9.3c0,0,0.1-0.1,0.1-0.1C180,9.1,179.9,9.2,179.9,9.3z"/>
	<path class="st0" d="M161.6,75.2C161.6,75.2,161.7,75.2,161.6,75.2C161.7,75.2,161.8,75.2,161.6,75.2z"/>
	<path class="st0" d="M179.1,76.6l-0.2,0c0,0.1-0.1,0.1-0.1,0.2L179.1,76.6z"/>
	<path class="st0" d="M112.1,0.1C112.1,0.1,112.2,0.1,112.1,0.1C112.5,0.1,112.3,0.1,112.1,0.1z"/>
	<path class="st0" d="M0.5,18.5c0.3-1.4,0.3,2.3,0.6,0.2C1,18.9,0.6,16.7,0.5,18.5z"/>
	<path class="st0" d="M178.3,61.4c0-0.2,0-0.4,0-0.6C178.3,61.1,178.3,61.3,178.3,61.4z"/>
	<path class="st0" d="M1.1,18.7L1.1,18.7l0-0.2C1.1,18.5,1.1,18.6,1.1,18.7z"/>
	<path class="st0" d="M80.1,0.3c0.1,0,0.2,0.1,0.3,0.1C80.4,0.4,80.3,0.3,80.1,0.3z"/>
	<path class="st0" d="M103.9,0.7l-0.6,0C103.6,0.7,103.8,0.7,103.9,0.7z"/>
	<path class="st0" d="M67.7,0.7c-0.3,0-0.4-0.1-0.9,0c0,0,0.1,0,0.1,0C67.1,0.7,67.3,0.6,67.7,0.7z"/>
	<path class="st0" d="M54.8,0.7c0.1,0,0.2,0,0.2,0.1c0.1,0,0.3,0,0.4,0L54.8,0.7z"/>
	<path class="st0" d="M122.4,75.3c0.3,0.1,0.5,0.2,0.6,0.3C122.8,75.4,124.7,75.3,122.4,75.3z"/>
	<path class="st0" d="M178.4,61.8c-0.1-0.1-0.1-0.2-0.1-0.4c0,0.1,0,0.3,0,0.4C178.3,61.9,178.4,61.9,178.4,61.8z"/>
	<path class="st0" d="M67.2,2.9l-2,0C65.7,2.9,66.4,2.9,67.2,2.9z"/>
	<path class="st0" d="M29.9,75.4l0.5,0C30.2,75.3,30,75.3,29.9,75.4z"/>
	<path class="st0" d="M59,2.9c-0.4-0.1-0.8-0.2-1.2-0.2c-0.1,0-0.2,0-0.2,0.1L59,2.9z"/>
	<path class="st0" d="M123,75.6L123,75.6L123,75.6z"/>
	<path class="st0" d="M136.5,74.9c-2,0-0.9,0.4-1.3,0.6c-2.3,0.1-1.1-0.3-1.9-0.5c-1.5,0.1-2.6,0.4-3.7,0.4c-0.1-0.1-0.3-0.1,0-0.2
		c-1.5,0.3-4.6,0-6.4,0.4c-0.1,0-0.2-0.1-0.2-0.1c0.3,0.2,0.3,0.4,0.3,0.5c-0.9,0-1.6,0.2-2,0c0.5,0,0.6-0.1,0.8-0.2l-0.9,0.1
		c-0.8-0.3,1.3-0.1,1.3-0.4c-1.8,0.1-3.9,0.4-5.2,0.3c-0.3-0.3,3.2-0.1,1.4-0.4l2.1,0.1c-1.6-0.5,1.3,0-0.2-0.5
		c-2.8-0.1-3.1,0.2-5.9,0.1c-0.6,0.2,0.2,0.3-0.4,0.5c-4,0.3-3.1-0.8-6-0.4c-0.8,0.2-1,0.7-3.1,0.4l0.7-0.4c-2.7,0-1.5,0.5-4.4,0.3
		c0.5-0.1,2.1-0.1,1.7-0.2c-1.8-0.3-1.3,0.2-2.7,0.2l-0.3-0.3c-2.9,0.1-6,0.3-9.2,0.4c0.2-0.1,0.7-0.2,0-0.3c-4,0.2-8.6,0-12.5-0.2
		L77,75.4c-0.3,0-0.6-0.1-0.3-0.2c-1.5-0.1-0.1,0.2-0.8,0.3c-0.9,0-1.1-0.2-0.6-0.3c-2.7,0.2-7.6,0.5-10.4,0.2l0.5-0.1
		c-2.2-0.1-2.5,0.6-4.5,0.3l0.4-0.1c-4.7-0.1-10,0.1-13.6-0.3c-0.7,0.4-4.7-0.2-5,0.4c-2.7-0.3-1.9-0.4-5.8-0.6
		c-1,0-1.5,0.4-2.8,0.4l0-0.3l-1.7,0.3l-0.9-0.4l-1.2,0.1c0.5,0,1,0.1,0.9,0.2c-1.8,0.1-4.5-0.2-4.5-0.4l-4.4,0.3
		c0.1-0.1,0.8-0.2,1.4-0.2c-2.3,0.3-0.4-0.3-2.6,0c0.3,0.1-0.2,0.2-0.2,0.2c-1.1-0.2-3.5-0.2-5.3-0.1l0.3-0.2
		c-3.2-0.1-6.8,0.1-10.5,0.1c1.3,0.1,1,0.5-0.1,0.5l-0.4-0.3c-0.7,0.2,1.1,0.1-0.3,0.4c-1.4,0-0.9-0.4-0.1-0.5c0,0-0.4,0-0.8,0.1
		c-0.2,0-0.4,0-0.6,0c-0.1,0-0.1,0-0.1,0c0-0.1,0-0.1,0.2-0.3c0,0-0.1,0-0.1,0c0,0,0,0,0,0c0,0,0,0-0.1,0c0,0-0.1,0-0.1-0.1
		c0-0.1,0.1-0.1,0.1-0.1c0,0,0,0,0,0c0-0.2-0.1-0.3-0.1-0.4l0.1-0.1c0-3.6-0.1-5.2-0.1-8.2c-0.3-0.1-0.2-1.2-0.4-2.1
		C2.6,62,2.9,59.6,2.8,57c-0.1-1.8-0.2-0.5-0.4-1.4c0.3-0.1,0.2-2.7,0.4-1.4c0-3.1-0.1-4-0.3-7.9c-0.1,0.4-0.2,0.9-0.2,0.7
		c0-0.7,0.1-1.6,0.2-1.5l0,0.2c-0.4-4.4,0.8-10.2,0.2-13.7l0,0.2l-0.3-3.7c0-1.7,0.2,1,0.4-0.2C2.5,24.3,3,22,2.7,18.8
		c0.8-2.5-0.1-8.9,0.4-12.3L2.9,6.7C2.8,5.8,3,5.6,3.1,5c-0.1,0.1-0.2,1-0.3,0.4c0-0.9,0-1.8-0.1-2.8c1.2,0,2.4,0,3.6,0.1
		c1.6,0,3.2,0.1,4.8,0.1c3.2,0.1,6.4,0.2,9.6,0.3c2.8,0,1.6-0.9,5.1-0.5l-1,0.3c5.7-0.4,11.6,0,17.2-0.3c-0.3,0.1-0.3,0.2-0.9,0.2
		c1.2,0.2,4.3,0,4.4-0.2c0.9,0,0.2,0.2,0.7,0.3c1.2,0.1,3-0.3,3.6-0.1c0.1,0-0.3,0.1-0.5,0.1c0.8-0.1,3.6,0,2.8-0.2
		c2.1,0.1,4-0.1,5.7,0c1.1-0.3,3.6,0.1,3.9-0.3c-0.1,0.4,3.7,0.4,5,0.2c-0.4,0.1,1.1,0.1,0.6,0.3c1.5,0,2.9-0.1,2.6-0.3
		c2.8,0.5,5.6-0.4,7.1,0.3c4.5-0.2,8.6-0.4,12.6-0.5c-0.1,0.4-4.4,0-4.3,0.5c3.8-0.2,6-0.6,9.8-0.5c1,0.1-0.6,0.2-0.9,0.3
		c3.8-0.2,7.4,0,10.8-0.2c0,0-0.4,0.1-0.7,0.1c0.7,0,1.6,0.1,1.5-0.1l-0.7,0.1c-1.1-0.3,2.7-0.6,2.8-0.8c-1.1,0.6,3.3,0.1,1.5,0.9
		c0.4,0,1-0.1,0.9-0.3c0.7,0,0.9,0.1,0.2,0.3c2.4-0.1,1.5-0.3,3.7-0.3c0,0.1-0.4,0.1-0.7,0.3c1.1-0.2,2.2-0.4,4-0.3
		c-0.1,0.1,0.1,0.1-0.4,0.1c3.1,0,5.4-0.5,8.8-0.3c-1,0.4,1.2,0.1,1.4,0.5l1.9-0.1l-0.7-0.2c1.6,0,3.1-0.3,4.5-0.1l-1.2,0.2l3-0.1
		L133.2,2c1.6-0.2-0.2-0.5,2-0.4c-0.4,0,1.6,0,2.5,0.2l0,0c0.8-0.1,1.6-0.2,2.8-0.2c0.3,0.1-0.3,0.4,0,0.5c0.8-0.3,3.8-0.1,4.8-0.4
		c-0.3,0.1-0.4,0.3-0.2,0.3l0.7-0.3c0.8,0.1,0.9,0.1,0.7,0.3c2.3,0-0.7-0.5,2-0.3c-0.2,0-0.1,0.1-0.5,0.1c2.7,0.1,5.2-0.2,7.7,0
		c0.7,0.4-2.2,0.1-1.3,0.4c3.6-0.1,7.4-0.4,10.9-0.4l-0.6,0c0.5-0.5,2.6,0.3,4.3,0c-0.4,0-0.6,0.3-0.4,0.2c2.4,0.1,4.8-0.1,8.4-0.3
		L176.3,2c0.4,0,0.9,0.1,1.3,0.1c0.3,0,0.6,0,0.9,0c0,0.6,0,1.2,0,1.7c0.1,0.4,0.1,1.3,0.3,0.8c-0.8,4.6,0.4,8.8-0.2,12.9
		c0-0.5-0.1-1.2-0.1-0.8l0.1,3.5c0.2-0.3,0.1-0.5,0.3-1.2c0.1,0.4,0.2,1.4,0.2,2.3c-0.2-1.6-0.4,0-0.5,0.7c0.1-0.1,0.1,0.1,0.2,0.1
		c-0.4,1.8,0.5,0.3,0.2,2.8l-0.1-0.1c0.1,0.9,0.2,1.8,0.2,2.8c-0.3,0.4-0.1-1-0.3-1.1c0,1.4,0.5,2.8,0.2,4c-0.1-0.6-0.1-1.5-0.2-2.1
		c-0.3,1.4-0.2,1.5-0.3,2.6l0-0.1l-0.1,2.4l0.1-0.6c0.7,1.8,0.1,3.6,0.6,6c-0.4-2.3-0.3-0.4-0.6-0.6c-0.1,0.6-0.2,1.5-0.3,1.3
		c0.2,1.1-0.2,1.9,0.2,3.5c-0.1,0.1,0,1.2-0.3,0.9c0.1,1.5,0.2-0.3,0.3-0.2c0.3,2.2-0.4,5.3,0.1,8.5c0.2,2.8,0.5,3.3,0.7,5.9
		c-0.2,0.9-0.4-0.7-0.4-0.7c-0.1,1.4-0.1,2.5,0,3.8c-0.1-0.3-0.2,0-0.3,0.4c0,1.1,0.4,0.7,0.2,2.1c-0.1-0.2-0.3-0.6-0.4-1.1
		c0.1,1.3,0.3,2.5,0.4,3.8c-0.2,0.3-0.3-0.8-0.4-1.2c0.1,1.5,0.2,3.8,0.4,4.2l0.1-0.9c0,0.5-0.2,0.3-0.3-0.1
		c-0.2-1.3,0.1-1.8,0.2-1.9l0.1,0.9c0.6-1-0.1-3.7-0.1-5.6l0.4,0.8l-0.3-1.9c0.1-0.4,0.3-0.7,0.4,0.2c0.2-1.3-0.1-1.2,0.1-2.3
		c0-0.1,0.1-0.1,0.1,0l-0.1-1.3c0.1,0.3,0.3-0.2,0.2,0.6c0.2-2.3-0.3-3.8,0-4.7l0,0.2c-0.1-3.2-0.3-0.3-0.7-2.8l0.8-1.6l-0.3-0.3
		c0-0.3,0-1,0.2-0.9c-0.2-1.2-0.1,0.2-0.3-0.5c0.3-1.6-0.1-4.4,0.4-4.8c-0.2-0.6-0.2,1.5-0.3-0.2c0.5-0.5-0.1-2,0.2-3.5
		c0.3,0.5,0.1,1.8,0.4,0.4c-0.5-0.9,0.1-2.9,0-4.1c-0.4-0.1-0.2-2.7-0.3-4.8c0.1,0.1,0.2-3.9,0.3-5.9l0.1,0.1
		c-0.4-0.4-0.3-2.4-0.4-3.8c0.2,0.1,0.3,0.3,0.4,1.1l0-1.4c-0.1-0.3-0.2-0.8-0.2-1.6l0.3,0.3c0-1.8-0.3-3.7-0.1-6
		c-0.3-0.1-0.7,1.9-0.9-0.6c0.1-0.1,0.4-0.2,0.4,0.5c0-0.2-0.1-0.8-0.1-1.2l0.2,1c0.1-1.1-0.2-0.6-0.2-1.4c0.2,0,0.1-0.6,0.3-0.5
		c0,0.2-0.1,0.7,0,1.1c0-1,0.2-2.1,0.3-2.5c-0.1,0.1-0.3,0-0.3-0.7c0-1.8,0.2-0.6,0.3-1.7c-0.1-0.4,0-1.6-0.3-1.6
		c0-0.5,0.1-0.6,0.2-0.8c0-0.3-0.1-0.8-0.1-1.4c0-0.8,0-1.6-0.1-2.2c-0.8,0-1.2,0.1-0.7,0.2l0.3,0c-0.1,0-0.1,0-0.2,0c0,0,0,0,0,0h0
		c-0.5,0-1,0.1-1.5,0.1c-0.4,0-0.8,0-1.2,0c-0.8,0-1.6,0-2.4-0.1c-1.6-0.1-3.2-0.1-4.8-0.1l0-0.1c-1.9,0.1-4.1,0.1-5.4,0.3
		c-0.5,0-1.3-0.2-1.1-0.3c-1.4,0.1-1.6,0.2-3.6,0c1.4-0.2-0.5-0.2,1.5-0.1c-1.8-0.1-2.3-0.2-4.2,0c0.7-0.3-1.4-0.3-2.3-0.2l1.3,0.2
		c-1,0-1.8,0-2.7,0l0.5-0.3c-3.8-0.4-6.8,0.7-9.7,0c-1,0.2,2,0.2,1.2,0.4c-1.7,0-3.5-0.5-4.1-0.5c-2.4-0.2-2.2,0.5-4.7,0.4
		c0.3,0.1,0.6,0.4-1.2,0.5c-1.7,0-2.1-0.5-1-0.6c0.4,0,0.6,0,0.6,0.1c0.6,0,1.3-0.1,0.6-0.2l-0.2,0.1c-0.9-0.1-3.2-0.1-2.7-0.3
		c-1.3,0.1-0.6,0.2,0.4,0.3c-2.2-0.2-3.5,0-5.8-0.1c0.4,0.1,0.7,0.2,0.3,0.2c-3.4-0.1-1.5,0.2-3.8,0.3c-1.3-0.2,0.5-0.4-1.8-0.3
		c-1.4-0.1-0.3-0.3,0.3-0.4c-2.1,0.2-3.9-0.1-5.1-0.2l1.1-0.1c-0.7,0.1-1.2,0.1-1.7,0.1l0.6,0.2c-0.6,0-1.2,0-1.2-0.1
		c-0.7,0.2,0.5,0.4-0.8,0.6c-0.9-0.1-2.6,0.1-2.9-0.2c2.7,0.1-0.3-0.3,2-0.4c-0.4,0-1,0-1.6,0c-0.1,0,0.1-0.1,0.3-0.1
		c-2.6-0.3-1.2,0.4-3.9,0.3c0.3-0.2-0.6-0.3-1.1-0.3c1.1,0,0.5,0.3-0.5,0.4c-1.7-0.1-1.9,0.1-2.8,0.1l1,0.1
		c-0.3,0.2-1.2,0.2-2.4,0.2c-0.1-0.1,1.1-0.1,0.7-0.2c-1.3,0.3-3-0.3-4.9-0.1c-0.9-0.1-0.1-0.3-0.8-0.4c-2.1,0.2-2.3-0.2-4.4-0.1
		c0.6,0.2,0.7,0.2-0.8,0.4l3.6-0.2l-2.3,0.3c1.1,0,2.3-0.1,2.9-0.1c-1.1,0.2-1,0.1-0.5,0.3c-1.5-0.4-2.9,0.2-4.7,0l0.1-0.6
		c-2.6-0.3-4.6,0.3-7.9,0.2l1.1,0.1c-0.4,0.2-2.1,0-3.2,0.1c0.1-0.2-0.6-0.3-1-0.4c0.1,0.1-2.5,0-2.8,0.4l-1.5-0.3
		c-2.7-0.1-3.1,0.6-5.7,0.5c0.8-0.2-0.4-0.4,1.3-0.5c-0.9,0-1.6,0-1.7,0.1c-0.5-0.1-2.4,0.3-3.2,0.1C66.6,0.8,66.5,1,65.5,1
		c-0.1,0,0-0.1,0-0.1C65.5,1,64,1,64.8,1.2c-2.7-0.6-7.5,0-9.8-0.5c-1.9,0.1-4.2,0.1-5.9,0.1c0.1-0.1,0-0.1,0.3-0.1
		c-2.4-0.2-1.5,0.6-4.2,0.4c-1.4-0.3,1.4-0.2,0.6-0.3c-0.4-0.6-3.3,0.1-5.1-0.3l0.4,0c-1.4-0.2-3.4,0.2-5.7,0.2c0,0,0.1-0.1,0-0.1
		C34,1,31.1,1.1,28.9,1.2c0.7-0.3,1-0.1,0.6-0.4c-1,0,0.3,0.4-1.7,0.5c-0.6-0.1-2-0.3-2.2-0.5l1.8,0c-0.9-0.4-2.4,0-3.4,0l0.1-0.2
		c-2.8,0.1-2.9,0.4-5.9,0.4L18.6,1c-1.7,0.4-1.4-0.2-3,0.1l-0.5-0.4C14,0.8,11.3,1.1,9.3,1.2c1.1-0.3,3.4-0.4,4.8-0.6
		c-1.1,0-3.7,0-4.2,0.2c0.4,0,1-0.1,1.4-0.1C10,1,8.2,1.2,6,1.2c0.1-0.2-0.4-0.4-1.3-0.4c-0.4,0-0.9,0-1.5,0c-0.8,0-1.6,0-2.5,0
		c0,0.8,0,1.7-0.1,2.4c0,0.5-0.1,0.9-0.2,1.1C0.8,8,0.4,11.7,0.4,16.1c0.6-1.6,0,1.3,0.6,1c0,1,0,1.4,0,1.5l-0.4,3.1
		c-0.2,0.7-0.1-1-0.3-0.9c0,2.2-0.3,0.9-0.4,2.4c0.2-0.3,0.3,0.8,0.2,2.1l0.3-1.8c0.3,3.1-0.5,2.7-0.2,5.9l-0.2-1
		c0.1,1.6,0,6,0.5,7.6c-0.1,0.3-0.2,0.7-0.3,0c-0.1,3.9,0.5,8.6,0.2,11.7l-0.2-0.3c0,0.7,0.3,1.3,0.1,2.2c-0.1,0-0.1-0.3-0.2,0
		c0.1,0.4,0.3,1.9,0.2,2.9l-0.2-0.8c-0.2,3.8,0.4,5.8,0.5,9c-0.4,0-0.6,3-0.7,4.5L0.2,65c0,2.2,0.1,4.1,0.2,5.9
		c0.1,0.9,0.1,1.8,0.2,2.7c0,0.5,0.1,1,0.1,1.5c0,0.7,0,1.5,0.1,2.3c0,0,0.1,0,0.1,0c0.8,0.1,2.6,0.2,3.4,0.2c1,0,2.1,0.1,3.3,0.1
		c2.4,0,4.9,0,7,0.2c-0.6-0.1,0.1-0.3,0.8-0.4c1,0.1,2.7-0.3,2.5,0.1l-0.3,0c0.7,0.4,2.7,0.3,4.3,0.3l0.3-0.5
		c4.1,0.8,10.6-0.3,12.8,0.4c1-0.1,2.2-0.1,3.2-0.3L38,77.8c2.7,0.1,4.1,0.1,7.4,0L44.7,78c1.9,0,2.4-0.8,4.1-0.8l0.5,0.4
		c3.3,0,6.6,0.4,9.9,0c-0.1,0.1-0.2,0.2-0.7,0.2c1.6,0,6,0.3,5.4-0.3c0,0.4,3.4,0,5.2-0.1l-0.3,0.3c1.5-0.4,1.6-0.5,3.7-0.5
		c0.5,0,0.4,0.2-0.2,0.2c1.7,0.1,1.3-0.3,3.3-0.1l-0.7,0.2c1.7,0,1.6-0.1,2.5-0.3c1.1-0.1,3.2,0.1,3.5,0.3c0.2-0.2,1.2-0.4,2.2-0.3
		c0.1,0.1-0.2,0.2-0.4,0.2c2.9,0.2,4.2-0.3,6.2,0c0,0.1,0.2,0.1,0.3,0.2c-2.3,0-4.1,0-3.9,0c0,0.3,1.8,0.3,0.4,0.7
		c1.5-0.2,4-0.6,5.8-0.5c0.1,0,0.2,0,0.2,0.1l-0.2,0c0.4,0,0.8,0,1.1,0c0.6,0,0.9,0.1,1.5,0.1c0.2,0.2,2.1,0.1,3,0.1
		c-0.1-0.3,1.1-0.2,0-0.5c0.1,0-0.2,0-0.8,0c-0.1,0-0.3,0-0.4,0c0,0,0,0,0.1,0c-0.6,0-1.4,0-2.3,0c0.7-0.1,1.5-0.3,2.5-0.1
		c0.5-0.2,1-0.4,1.3-0.5c1.2,0.4,3.7,0.6,4,0.8c2.8-0.2,6.6-0.1,8.3-0.6c0.8-0.1,0.9,0.2,1.2,0.2c-0.5,0.1-1,0-1.2,0.1
		c1.6-0.1,4.7-0.1,5.1-0.4c2,0.2-1.1,0.3,1.6,0.3l-0.4,0.1c5.4,0.6,8.8-0.9,14.8-0.2c-0.4,0-0.6-0.1-0.7-0.1
		c6.8,0.3,14.1-0.3,20.8,0.2c1.9,0.1,2.1-0.1,3.3-0.3l0.4,0.3l2-0.3c2.8-0.3,4.9,0.7,8.5,0.3l-0.5-0.2c1.3,0,4.1-0.1,3.9,0.1
		c0.1,0,0.4-0.2,0.9-0.1l0,0.2l3.2-0.3c2.5,0.1-0.4,0.6,3.2,0.7c1.3-0.1,3.8-0.5,3.3-0.6c-0.5,0-1.4-0.1-1.4-0.3l1.2-0.1
		c0.2-0.5,1.2-0.9-1.8-1.3l-2.1,0.3l-0.7-0.2l1.8,0c-1-0.2-1.6,0-2.3,0.1c-0.2-0.1-0.5-0.2-0.9-0.2l-2,0.4c-0.2-0.2,0.9-0.4-0.5-0.5
		c-1,0.2,0.9,0.4-0.7,0.5c-1-0.2-0.7-0.4-1.9-0.2c-0.2-0.1,0.1-0.2,0.5-0.2c-1,0.1-2.8,0.1-3.3,0.3c-1-0.3-3.5,0.1-3.4-0.4
		c-0.3,0.1-1.8,0.3-2.8,0.4c1.7-0.5-3.6,0-3.1-0.6c-1.3,0.5-4.7,0.2-7,0.5c0.1,0,0.4-0.1,0.6-0.1c-1.3,0-1.7-0.2-2.5-0.3
		c-0.2,0.4-2.2,0.5-3.3,0.7c-1.6-0.4,1-0.5,0.5-0.8c0.1,0.3-2.7,0.3-2.2,0.6c-1.2-0.2-1-0.1-1.7-0.4c-0.2,0.5-1.1,0.1-2.1,0.4
		c-1.7-0.2-0.4-0.5-2.4-0.3C134.8,75.1,136.5,74.9,136.5,74.9z M90.9,75.7L90.9,75.7c0.4,0,0.7,0,0.9,0
		C91.7,75.7,91.4,75.7,90.9,75.7z M87.1,75.8c0.5,0,1,0,1.7,0c0.1,0.1,0,0.2-0.4,0.2C88.6,75.9,87.7,75.8,87.1,75.8z M95.2,77.7
		c-0.6,0-0.8,0-0.9-0.1c0.3,0,0.6,0,1.1,0c0,0,0.1,0,0.1,0C95.4,77.6,95.3,77.7,95.2,77.7z"/>
	<path class="st0" d="M96.3,77.3c0.1,0,0.1,0,0.3,0c-0.1,0-0.2,0-0.4-0.1c-0.1,0-0.1,0.1-0.2,0.1C96.1,77.3,96.2,77.3,96.3,77.3z"/>
	<path class="st0" d="M179,1.1L179,1.1C179,1.1,179.1,1.1,179,1.1C179,1.1,179,1.1,179,1.1z"/>
	<polygon class="st0" points="34.1,75.2 34.1,75.3 34.5,75.2 	"/>
	<path class="st0" d="M178.6,22c0,0-0.1,0.1-0.1,0.3C178.5,22.2,178.5,22.1,178.6,22z"/>
	<path class="st0" d="M178.5,31l-0.1,1.3C178.4,31.7,178.5,31.3,178.5,31z"/>
	<path class="st0" d="M178.3,37.9c0,0.1,0.1,0.1,0.1,0.1c0,0,0,0,0,0L178.3,37.9z"/>
	<path class="st0" d="M104.4,2.6c-0.1,0-0.2,0-0.3,0C103.5,2.6,104,2.6,104.4,2.6z"/>
	<path class="st0" d="M137.6,1.9c-0.4,0.1-0.7,0.1-1.1,0.1C137.1,2.1,137.6,2.1,137.6,1.9z"/>
	<path class="st0" d="M67.4,2.9L67.4,2.9c-0.1,0-0.1,0-0.2,0L67.4,2.9z"/>
	<path class="st0" d="M135,2c0.6,0.1,1.1,0,1.5,0C136.1,2,135.5,2,135,2z"/>
	<path class="st0" d="M178.2,68l0,0.3c0,0,0,0,0,0L178.2,68z"/>
	<path class="st0" d="M178.3,68.4l0,0.4C178.3,68.6,178.3,68.4,178.3,68.4z"/>
	<path class="st0" d="M178.4,69.5l-0.1-0.8C178.3,69,178.3,69.3,178.4,69.5z"/>
	<path class="st0" d="M178.4,58.8l-0.1-0.1C178.3,58.8,178.3,58.8,178.4,58.8z"/>
	<path class="st0" d="M178.3,56c0,0.7-0.2,1.7-0.2,2.6l0.1,0.1C178.1,58.3,178.5,56.6,178.3,56z"/>
	<path class="st0" d="M179.6,44.4l-0.1,2.3c0.1-0.4,0.3-0.9,0.3,0.1C180.1,43.9,179.5,47.4,179.6,44.4z"/>
	<path class="st0" d="M179.7,37.1c0.1,1.3,0.2,0,0.2,0.1C179.9,36.4,179.8,36.2,179.7,37.1z"/>
	<path class="st0" d="M162.1,0.8l0.1-0.3C161.3,0.6,162.3,0.7,162.1,0.8z"/>
	<polygon class="st0" points="152,2.2 153,2.3 153.4,2.1 	"/>
	<polygon class="st0" points="146,0.3 146.5,0.3 144.8,0.4 	"/>
	<path class="st0" d="M57.1,0.4l0.3,0.3C58,0.7,58.2,0.3,57.1,0.4z"/>
	<path class="st0" d="M18.7,0.8c-0.4-0.2-1.5-0.3-2.2-0.1C17.4,0.7,18.2,0.8,18.7,0.8z"/>
	<polygon class="st0" points="24,77.7 23.2,77.8 24.6,77.7 	"/>
</g>
</svg>
