<?xml version="1.0" encoding="utf-8"?>
<!-- Generator: Adobe Illustrator 19.2.1, SVG Export Plug-In . SVG Version: 6.00 Build 0)  -->
<svg version="1.1" id="Capa_1" xmlns="http://www.w3.org/2000/svg" xmlns:xlink="http://www.w3.org/1999/xlink" x="0px" y="0px"
	 viewBox="0 0 310 14" style="enable-background:new 0 0 310 14;" xml:space="preserve">
<style type="text/css">
	.st0{fill:#FCFBE8;}
</style>
<g>
	<polygon class="st0" points="310,0 301.8,8.9 293.7,0 285.5,8.9 277.4,0 269.2,8.9 261,0 252.9,8.9 244.7,0 236.6,8.9 228.4,0 
		220.2,8.9 212.1,0 203.9,8.9 195.8,0 187.6,8.9 179.5,0 171.3,8.9 163.1,0 155,8.9 146.8,0 138.7,8.9 130.5,0 122.4,8.9 114.2,0 
		106,8.9 97.9,0 89.7,8.9 81.6,0 73.4,8.9 65.3,0 57.1,8.9 48.9,0 40.8,8.9 32.6,0 24.5,8.9 16.3,0 8.2,8.9 0,0 0,14 310,14 	"/>
</g>
</svg>
