<?xml version="1.0" encoding="utf-8"?>
<!-- Generator: Adobe Illustrator 19.2.1, SVG Export Plug-In . SVG Version: 6.00 Build 0)  -->
<svg version="1.1" id="Capa_1" xmlns="http://www.w3.org/2000/svg" xmlns:xlink="http://www.w3.org/1999/xlink" x="0px" y="0px"
	 viewBox="0 0 402 75" style="enable-background:new 0 0 402 75;" xml:space="preserve">
<style type="text/css">
	.st0{fill:#030104;}
</style>
<polygon class="st0" points="361,44.9 353,36 343.9,44.9 334.8,36 325.6,44.9 317.5,36 307.3,44.9 299.2,36 291,44.9 282.9,36 
	274.7,44.9 266.5,36 258.4,44.9 250.2,36 242.1,44.9 233.9,36 225.8,44.9 217.6,36 209.4,44.9 201.3,36 193.1,44.9 185,36 
	176.8,44.9 168.7,36 160.5,44.9 152.3,36 144.2,44.9 136,36 126.9,44.9 118.7,36 109.6,44.9 101.4,36 92.2,44.9 84.1,36 74.9,44.9 
	66.8,36 57.6,44.9 49.3,36 41,44.9 31,35.5 31,45.5 371,45.5 371,35.5 "/>
</svg>
